<svg width="24" height="24" viewBox="0 0 24 24" fill="none" xmlns="http://www.w3.org/2000/svg">
<path d="M24 6.85714V4.28571C24 3.60373 23.7291 2.94968 23.2468 2.46744C22.7646 1.9852 22.1106 1.71429 21.4286 1.71429H18V0.857143C18 0.629814 17.9097 0.411797 17.7489 0.251051C17.5882 0.0903058 17.3702 0 17.1429 0C16.9155 0 16.6975 0.0903058 16.5368 0.251051C16.376 0.411797 16.2857 0.629814 16.2857 0.857143V1.71429H7.71429V0.857143C7.71429 0.629814 7.62398 0.411797 7.46323 0.251051C7.30249 0.0903058 7.08447 0 6.85714 0C6.62981 0 6.4118 0.0903058 6.25105 0.251051C6.09031 0.411797 6 0.629814 6 0.857143V1.71429H2.57143C1.88944 1.71429 1.23539 1.9852 0.753154 2.46744C0.270918 2.94968 0 3.60373 0 4.28571V6.85714H24ZM0 8.57143V21.4286C0 22.1106 0.270918 22.7646 0.753154 23.2468C1.23539 23.7291 1.88944 24 2.57143 24H21.4286C22.1106 24 22.7646 23.7291 23.2468 23.2468C23.7291 22.7646 24 22.1106 24 21.4286V8.57143H0ZM16.8429 13.5077L10.8429 18.6506C10.6789 18.7908 10.468 18.864 10.2524 18.8556C10.0368 18.8472 9.83228 18.7577 9.67971 18.6051L7.10829 16.0337C6.95215 15.8721 6.86576 15.6555 6.86771 15.4308C6.86966 15.2061 6.95981 14.9911 7.11873 14.8322C7.27765 14.6732 7.49263 14.5831 7.71737 14.5811C7.94211 14.5792 8.15863 14.6656 8.32029 14.8217L10.3311 16.8326L15.7311 12.204C15.8161 12.1274 15.9156 12.0686 16.0237 12.031C16.1317 11.9935 16.2462 11.9779 16.3604 11.9853C16.4746 11.9927 16.5861 12.0229 16.6885 12.0741C16.7908 12.1253 16.8818 12.1964 16.9562 12.2834C17.0306 12.3703 17.0869 12.4712 17.1216 12.5802C17.1564 12.6892 17.169 12.8041 17.1587 12.918C17.1483 13.032 17.1153 13.1427 17.0615 13.2437C17.0077 13.3447 16.9342 13.4339 16.8454 13.506L16.8429 13.5077Z" fill="#1067FF"/>
</svg>
