<svg width="18" height="18" viewBox="0 0 18 18" fill="none" xmlns="http://www.w3.org/2000/svg">
<path d="M3.75 13.5004H6.93C7.0287 13.501 7.12655 13.4821 7.21793 13.4448C7.30931 13.4074 7.39242 13.3525 7.4625 13.2829L12.6525 8.08544L14.7825 6.00044C14.8528 5.93072 14.9086 5.84777 14.9467 5.75638C14.9847 5.66498 15.0043 5.56695 15.0043 5.46794C15.0043 5.36893 14.9847 5.2709 14.9467 5.17951C14.9086 5.08812 14.8528 5.00516 14.7825 4.93544L11.6025 1.71794C11.5328 1.64765 11.4498 1.59185 11.3584 1.55377C11.267 1.5157 11.169 1.49609 11.07 1.49609C10.971 1.49609 10.873 1.5157 10.7816 1.55377C10.6902 1.59185 10.6072 1.64765 10.5375 1.71794L8.4225 3.84044L3.2175 9.03794C3.14799 9.10802 3.093 9.19113 3.05567 9.28251C3.01835 9.37389 2.99943 9.47174 3 9.57044V12.7504C3 12.9494 3.07902 13.1401 3.21967 13.2808C3.36032 13.4214 3.55109 13.5004 3.75 13.5004ZM11.07 3.30794L13.1925 5.43044L12.1275 6.49544L10.005 4.37294L11.07 3.30794ZM4.5 9.87794L8.9475 5.43044L11.07 7.55294L6.6225 12.0004H4.5V9.87794ZM15.75 15.0004H2.25C2.05109 15.0004 1.86032 15.0795 1.71967 15.2201C1.57902 15.3608 1.5 15.5515 1.5 15.7504C1.5 15.9494 1.57902 16.1401 1.71967 16.2808C1.86032 16.4214 2.05109 16.5004 2.25 16.5004H15.75C15.9489 16.5004 16.1397 16.4214 16.2803 16.2808C16.421 16.1401 16.5 15.9494 16.5 15.7504C16.5 15.5515 16.421 15.3608 16.2803 15.2201C16.1397 15.0795 15.9489 15.0004 15.75 15.0004Z" fill="#5B6A7E"/>
</svg>
