<svg width="20" height="20" viewBox="0 0 20 20" fill="none" xmlns="http://www.w3.org/2000/svg">
<path d="M11.6661 10C11.6661 10.9205 10.9199 11.6667 9.99941 11.6667C9.07894 11.6667 8.33274 10.9205 8.33274 10C8.33274 9.07953 9.07894 8.33333 9.99941 8.33333C10.9199 8.33333 11.6661 9.07953 11.6661 10Z" fill="#1067FF"/>
<path fill-rule="evenodd" clip-rule="evenodd" d="M9.99941 2.5C5.33981 2.5 1.42456 5.68693 0.314453 10C1.42456 14.3131 5.33981 17.5 9.99941 17.5C14.659 17.5 18.5743 14.3131 19.6844 10C18.5743 5.68693 14.659 2.5 9.99941 2.5ZM13.3327 10C13.3327 11.8409 11.8404 13.3333 9.99941 13.3333C8.15846 13.3333 6.66608 11.8409 6.66608 10C6.66608 8.15905 8.15846 6.66667 9.99941 6.66667C11.8404 6.66667 13.3327 8.15905 13.3327 10Z" fill="#1067FF"/>
</svg>
