<svg width="19" height="17" viewBox="0 0 19 17" fill="none" xmlns="http://www.w3.org/2000/svg">
<path d="M0.833984 2.16634C0.833984 1.69963 0.833984 1.46628 0.924812 1.28802C1.00471 1.13121 1.13219 1.00373 1.28899 0.923836C1.46725 0.833008 1.70061 0.833008 2.16732 0.833008H16.1673C16.634 0.833008 16.8674 0.833008 17.0456 0.923836C17.2024 1.00373 17.3299 1.13121 17.4098 1.28802C17.5007 1.46628 17.5007 1.69963 17.5007 2.16634V2.72417C17.5007 2.94817 17.5007 3.06017 17.4733 3.16431C17.449 3.2566 17.4091 3.34404 17.3552 3.42281C17.2945 3.5117 17.2098 3.58505 17.0406 3.73175L11.7107 8.35093C11.5415 8.49763 11.4568 8.57098 11.3961 8.65987C11.3422 8.73865 11.3023 8.82608 11.278 8.91837C11.2507 9.02252 11.2507 9.13452 11.2507 9.35851V13.715C11.2507 13.878 11.2507 13.9594 11.2244 14.0299C11.2011 14.0921 11.1634 14.1479 11.1142 14.1926C11.0585 14.2432 10.9829 14.2734 10.8316 14.334L7.99824 15.4673C7.69196 15.5898 7.53881 15.6511 7.41588 15.6255C7.30837 15.6032 7.21403 15.5393 7.15336 15.4478C7.08398 15.3431 7.08398 15.1782 7.08398 14.8483V9.35851C7.08398 9.13452 7.08398 9.02252 7.05661 8.91837C7.03236 8.82608 6.99243 8.73865 6.93857 8.65987C6.8778 8.57098 6.79316 8.49763 6.62389 8.35093L1.29408 3.73175C1.1248 3.58505 1.04017 3.5117 0.979394 3.42281C0.925538 3.34404 0.885612 3.2566 0.861356 3.16431C0.833984 3.06017 0.833984 2.94817 0.833984 2.72417V2.16634Z" stroke="#344054" stroke-width="1.66667" stroke-linecap="round" stroke-linejoin="round"/>
</svg>
