<svg width="30" height="30" viewBox="0 0 30 30" fill="none" xmlns="http://www.w3.org/2000/svg">
<path d="M27.9536 19.1535H23.0262V3.3281H26.1203V4.72692H25.0527C24.9591 4.72644 24.8664 4.7451 24.7798 4.78183C24.6931 4.81857 24.6144 4.87266 24.5479 4.941C24.4815 5.00935 24.4287 5.09061 24.3926 5.18014C24.3564 5.26966 24.3377 5.3657 24.3374 5.46276V11.1382C24.3374 11.2354 24.3559 11.3317 24.3919 11.4215C24.4279 11.5114 24.4806 11.5929 24.5471 11.6615C24.6136 11.7301 24.6925 11.7844 24.7792 11.8213C24.866 11.8582 24.9589 11.8769 25.0527 11.8764H28.3306C28.5194 11.8764 28.7004 11.7987 28.8339 11.6602C28.9674 11.5218 29.0424 11.334 29.0424 11.1382V5.46276C29.0418 5.26738 28.9665 5.08022 28.8331 4.94229C28.6997 4.80436 28.519 4.72692 28.3306 4.72692H27.5439V2.58983C27.5439 2.49288 27.5255 2.39688 27.4897 2.30731C27.4539 2.21774 27.4015 2.13635 27.3354 2.0678C27.2693 1.99924 27.1909 1.94486 27.1045 1.90776C27.0182 1.87066 26.9256 1.85156 26.8321 1.85156H17.7944C17.6057 1.85156 17.4246 1.92934 17.2911 2.0678C17.1576 2.20625 17.0826 2.39403 17.0826 2.58983V4.72692H16.2959C16.108 4.72756 15.9279 4.80529 15.795 4.94315C15.6621 5.081 15.5871 5.2678 15.5865 5.46276V11.1382C15.5868 11.3339 15.6619 11.5215 15.7953 11.6599C15.9287 11.7982 16.1096 11.8761 16.2983 11.8764H19.5762C19.765 11.8764 19.946 11.7987 20.0795 11.6602C20.213 11.5218 20.288 11.334 20.288 11.1382V5.46276C20.288 5.26695 20.213 5.07917 20.0795 4.94072C19.946 4.80227 19.765 4.72449 19.5762 4.72449H18.5085V3.3281H21.6027V19.1535H12.0885V17.5288C12.0885 16.6802 11.7637 15.8663 11.1856 15.2659C10.6074 14.6656 9.82306 14.3278 9.00492 14.3268H1.42355V11.0993C1.42355 10.9035 1.34856 10.7157 1.21508 10.5773C1.0816 10.4388 0.900552 10.3611 0.711777 10.3611C0.523002 10.3611 0.341959 10.4388 0.208475 10.5773C0.0749906 10.7157 0 10.9035 0 11.0993L0 29.2512C0 29.447 0.0749906 29.6348 0.208475 29.7733C0.341959 29.9117 0.523002 29.9895 0.711777 29.9895C0.900552 29.9895 1.0816 29.9117 1.21508 29.7733C1.34856 29.6348 1.42355 29.447 1.42355 29.2512V25.7408H21.6027V28.519H19.5797C19.3909 28.519 19.2099 28.5968 19.0764 28.7353C18.9429 28.8737 18.8679 29.0615 18.8679 29.2573C18.8679 29.4531 18.9429 29.6409 19.0764 29.7793C19.2099 29.9178 19.3909 29.9956 19.5797 29.9956H25.0527C25.2415 29.9956 25.4225 29.9178 25.556 29.7793C25.6895 29.6409 25.7645 29.4531 25.7645 29.2573C25.7645 29.0615 25.6895 28.8737 25.556 28.7353C25.4225 28.5968 25.2415 28.519 25.0527 28.519H23.0262V25.7408H28.5764V29.2621C28.5764 29.4579 28.6514 29.6457 28.7849 29.7842C28.9184 29.9226 29.0994 30.0004 29.2882 30.0004C29.477 30.0004 29.658 29.9226 29.7915 29.7842C29.925 29.6457 30 29.4579 30 29.2621V21.2748C29.9991 20.7123 29.7831 20.1731 29.3995 19.7754C29.0159 19.3778 28.496 19.1541 27.9536 19.1535ZM10.6649 19.1535H1.56052V15.8082H9.00492C9.44489 15.8085 9.86677 15.9899 10.178 16.3124C10.4892 16.635 10.6643 17.0725 10.6649 17.5288V19.1535Z" fill="#1067FF"/>
<path d="M1.21491 7.44644H3.40058C3.5564 7.44616 3.70784 7.39293 3.83174 7.29491C3.95563 7.19689 4.04515 7.05946 4.0866 6.90366L5.06881 3.21476L7.49213 10.4311C7.54107 10.5763 7.63243 10.702 7.7535 10.7908C7.87458 10.8796 8.01933 10.927 8.16761 10.9265H8.18283C8.33298 10.923 8.47822 10.8704 8.59784 10.7762C8.71745 10.682 8.80534 10.551 8.84895 10.4019L10.3521 5.24864H12.3423C12.5311 5.24864 12.7121 5.17085 12.8456 5.0324C12.9791 4.89395 13.0541 4.70617 13.0541 4.51037C13.0541 4.31457 12.9791 4.12679 12.8456 3.98834C12.7121 3.84988 12.5311 3.7721 12.3423 3.7721H9.82296C9.67015 3.77209 9.52139 3.8231 9.39869 3.91756C9.27599 4.01203 9.18586 4.14495 9.14162 4.29666L8.11961 7.80221L5.66117 0.493615C5.61076 0.345288 5.51606 0.217495 5.39084 0.128803C5.26562 0.0401098 5.1164 -0.00486312 4.96485 0.000417049C4.8133 0.00569722 4.66733 0.0609555 4.54813 0.158164C4.42893 0.255373 4.34271 0.389469 4.30201 0.540971L2.85855 5.9699H1.21959C1.03081 5.9699 0.849771 6.04768 0.716287 6.18614C0.582803 6.32459 0.507813 6.51237 0.507812 6.70817C0.507813 6.90397 0.582803 7.09175 0.716287 7.2302C0.849771 7.36865 1.03081 7.44644 1.21959 7.44644H1.21491Z" fill="#1067FF"/>
</svg>
