<svg width="19" height="19" viewBox="0 0 19 19" fill="none" xmlns="http://www.w3.org/2000/svg">
<path d="M5.73242 14.063L8.10821 15.9024C8.41476 16.2089 9.1045 16.3622 9.56433 16.3622H12.4766C13.3962 16.3622 14.3925 15.6724 14.6224 14.7528L16.4618 9.15819C16.845 8.08526 16.1552 7.1656 15.0056 7.1656H11.9401C11.4803 7.1656 11.0971 6.78241 11.1737 6.24594L11.5569 3.79352C11.7102 3.10378 11.2504 2.3374 10.5606 2.10748C9.94752 1.87757 9.18114 2.18412 8.87459 2.64395L5.73242 7.31888" stroke="#344054" stroke-width="1.37949" stroke-miterlimit="10"/>
<path d="M1.82422 14.0633V6.55281C1.82422 5.47987 2.28405 5.09668 3.35698 5.09668H4.12336C5.1963 5.09668 5.65613 5.47987 5.65613 6.55281V14.0633C5.65613 15.1363 5.1963 15.5195 4.12336 15.5195H3.35698C2.28405 15.5195 1.82422 15.1363 1.82422 14.0633Z" stroke="#344054" stroke-width="1.37949" stroke-linecap="round" stroke-linejoin="round"/>
</svg>
