<svg width="129" height="32" viewBox="0 0 129 32" fill="none" xmlns="http://www.w3.org/2000/svg">
<rect width="32" height="32" rx="8" fill="#1067FF"/>
<path fill-rule="evenodd" clip-rule="evenodd" d="M8.95241 8H16.0001C20.4001 8 24.0001 11.6 24.0001 16.0001V23.0477C24.0001 23.3096 23.893 23.5477 23.7203 23.7203L23.7066 23.7336L23.7038 23.7363L23.7203 23.7203C23.7203 23.7203 22.5645 20.9105 19.833 17.5166H20.3258C20.6345 17.5166 20.887 17.2641 20.887 16.9556V15.0444C20.887 14.7358 20.6345 14.4834 20.3258 14.4834H17.5165V11.6741C17.5165 11.3655 17.264 11.113 16.9553 11.113H15.0443C14.7356 11.113 14.4831 11.3655 14.4831 11.6741V12.2515C14.1202 11.9704 13.746 11.6927 13.3586 11.42C13.7476 11.7489 14.1217 12.0784 14.4831 12.4075V14.4833H11.674C11.3654 14.4833 11.1128 14.7357 11.1128 15.0443V16.9555C11.1128 17.264 11.3653 17.5165 11.674 17.5165H14.4831V20.3258C14.4831 20.6344 14.7356 20.8868 15.0443 20.8868H16.9553C17.264 20.8868 17.5165 20.6344 17.5165 20.3258V17.5165H19.1868C22.007 21.2007 23.0476 24 23.0476 24H15.9999C11.6 24.0002 8 20.4002 8 16.0001V8.95241C8 8.42861 8.42861 8 8.95241 8Z" fill="white"/>
<path d="M41.3072 27.418V4.88867H47.6279L54.5119 26.6044H52.2902L59.1742 4.88867H65.5262V27.418H61.521V6.23417H62.1781L55.4819 27.418H51.1325L44.4989 6.42192H45.1247V27.418H41.3072ZM74.7394 27.7309C72.5281 27.7309 70.7654 27.2719 69.4512 26.3541C68.137 25.4154 67.4173 24.122 67.2922 22.474H70.8906C70.9949 23.2876 71.3808 23.903 72.0484 24.3202C72.7159 24.7374 73.6129 24.946 74.7394 24.946C75.7615 24.946 76.5229 24.7896 77.0236 24.4766C77.5451 24.1429 77.8058 23.6735 77.8058 23.0686C77.8058 22.6305 77.6598 22.2759 77.3678 22.0047C77.0757 21.7126 76.5229 21.4727 75.7094 21.285L73.1435 20.6905C71.3912 20.315 70.0875 19.7309 69.2322 18.9382C68.3978 18.1246 67.9806 17.1129 67.9806 15.903C67.9806 14.4219 68.5438 13.2641 69.6703 12.4297C70.8176 11.5744 72.3926 11.1468 74.3952 11.1468C76.3769 11.1468 77.9623 11.5744 79.1513 12.4297C80.3612 13.2641 81.0288 14.4219 81.1539 15.903H77.5555C77.4512 15.2563 77.1174 14.7661 76.5542 14.4323C76.0118 14.0986 75.2609 13.9317 74.3013 13.9317C73.4043 13.9317 72.7263 14.0777 72.2674 14.3698C71.8085 14.6409 71.579 15.0477 71.579 15.5901C71.579 16.0073 71.7563 16.3619 72.1109 16.654C72.4656 16.9252 73.0601 17.1651 73.8945 17.3737L76.6481 17.9995C78.2126 18.3541 79.3912 18.9695 80.1839 19.8456C80.9975 20.7218 81.4043 21.7544 81.4043 22.9434C81.4043 24.4662 80.8202 25.6448 79.652 26.4792C78.4838 27.3137 76.8463 27.7309 74.7394 27.7309ZM82.5178 27.418V22.9121H87.0549V27.418H82.5178ZM98.942 27.7309C96.5639 27.7309 94.5091 27.2615 92.7777 26.3228C91.0463 25.3632 89.7112 24.0281 88.7725 22.3176C87.8338 20.5862 87.3644 18.5627 87.3644 16.2472C87.3644 13.9317 87.8338 11.9082 88.7725 10.1768C89.7112 8.42452 91.015 7.05816 92.6838 6.07772C94.3527 5.07642 96.2927 4.57577 98.5039 4.57577C100.298 4.57577 101.904 4.90953 103.323 5.57707C104.762 6.22374 105.92 7.12074 106.796 8.26807C107.693 9.39453 108.235 10.7087 108.423 12.2107H104.355C104.147 10.8756 103.521 9.82217 102.478 9.05033C101.435 8.2785 100.131 7.89258 98.5665 7.89258C97.148 7.89258 95.9068 8.22635 94.8429 8.89388C93.779 9.56142 92.955 10.5106 92.3709 11.7413C91.7868 12.9721 91.4948 14.4428 91.4948 16.1533C91.4948 17.9056 91.7868 19.4076 92.3709 20.6592C92.9759 21.8899 93.8416 22.8287 94.968 23.4753C96.1154 24.122 97.513 24.4454 99.161 24.4454C100.433 24.4454 101.529 24.2889 102.447 23.976C103.364 23.6422 104.105 23.152 104.668 22.5053L108.58 24.0386C107.39 25.2485 106.014 26.1663 104.449 26.7922C102.885 27.418 101.049 27.7309 98.942 27.7309ZM104.512 24.0386V17.4675L105.482 18.4375H99.1297V15.2459H108.58V24.0386H104.512ZM118.581 27.7309C116.891 27.7309 115.4 27.3762 114.106 26.667C112.834 25.9577 111.843 24.9773 111.134 23.7257C110.424 22.4532 110.07 21.0034 110.07 19.3763C110.07 17.7491 110.424 16.3202 111.134 15.0894C111.843 13.8587 112.834 12.8991 114.106 12.2107C115.4 11.5014 116.891 11.1468 118.581 11.1468C120.291 11.1468 121.783 11.5014 123.055 12.2107C124.328 12.8991 125.319 13.8587 126.028 15.0894C126.737 16.3202 127.092 17.7491 127.092 19.3763C127.092 21.0034 126.727 22.4532 125.997 23.7257C125.287 24.9773 124.297 25.9577 123.024 26.667C121.752 27.3762 120.27 27.7309 118.581 27.7309ZM118.581 24.5705C119.415 24.5705 120.166 24.3619 120.834 23.9447C121.501 23.5066 122.023 22.9017 122.398 22.1298C122.774 21.3371 122.961 20.4089 122.961 19.345C122.961 17.7804 122.544 16.5497 121.71 15.6527C120.896 14.7557 119.853 14.3072 118.581 14.3072C117.308 14.3072 116.255 14.7557 115.42 15.6527C114.586 16.5497 114.169 17.7804 114.169 19.345C114.169 20.4089 114.357 21.3371 114.732 22.1298C115.128 22.9017 115.65 23.5066 116.297 23.9447C116.964 24.3619 117.726 24.5705 118.581 24.5705Z" fill="#37404C"/>
</svg>
