<svg width="129" height="32" viewBox="0 0 129 32" fill="none" xmlns="http://www.w3.org/2000/svg">
<rect width="32" height="32" rx="8" fill="#1067FF"/>
<path fill-rule="evenodd" clip-rule="evenodd" d="M8.95241 8H16.0001C20.4001 8 24.0001 11.6 24.0001 16.0001V23.0477C24.0001 23.3096 23.893 23.5477 23.7203 23.7203L23.7066 23.7336L23.7038 23.7363L23.7203 23.7203C23.7203 23.7203 22.5645 20.9105 19.833 17.5166H20.3258C20.6345 17.5166 20.887 17.2641 20.887 16.9556V15.0444C20.887 14.7358 20.6345 14.4834 20.3258 14.4834H17.5165V11.6741C17.5165 11.3655 17.264 11.113 16.9553 11.113H15.0443C14.7356 11.113 14.4831 11.3655 14.4831 11.6741V12.2515C14.1202 11.9704 13.746 11.6927 13.3586 11.42C13.7476 11.7489 14.1217 12.0784 14.4831 12.4075V14.4833H11.674C11.3654 14.4833 11.1128 14.7357 11.1128 15.0443V16.9555C11.1128 17.264 11.3653 17.5165 11.674 17.5165H14.4831V20.3258C14.4831 20.6344 14.7356 20.8868 15.0443 20.8868H16.9553C17.264 20.8868 17.5165 20.6344 17.5165 20.3258V17.5165H19.1868C22.007 21.2007 23.0476 24 23.0476 24H15.9999C11.6 24.0002 8 20.4002 8 16.0001V8.95241C8 8.42861 8.42861 8 8.95241 8Z" fill="white"/>
<path d="M41.3072 27.418V4.88867H47.6279L54.5119 26.6044H52.2902L59.1742 4.88867H65.5262V27.418H61.521V6.23417H62.1781L55.4819 27.418H51.1325L44.4989 6.42192H45.1247V27.418H41.3072ZM75.8032 27.7309C74.1135 27.7309 72.6324 27.3762 71.36 26.667C70.1083 25.9577 69.1279 24.9773 68.4186 23.7257C67.7302 22.474 67.386 21.0347 67.386 19.4076C67.386 17.7804 67.7302 16.3515 68.4186 15.1207C69.1279 13.8691 70.1083 12.8991 71.36 12.2107C72.6116 11.5014 74.0718 11.1468 75.7407 11.1468C77.3261 11.1468 78.7028 11.4806 79.871 12.1481C81.0392 12.7948 81.9466 13.7126 82.5933 14.9017C83.24 16.0907 83.5633 17.478 83.5633 19.0634C83.5633 19.3554 83.5529 19.6266 83.532 19.8769C83.5112 20.1272 83.4799 20.3776 83.4382 20.6279H69.8267V17.8743H80.403L79.5894 18.6253C79.5894 17.1233 79.2452 15.9969 78.5568 15.2459C77.8684 14.4949 76.9088 14.1194 75.6781 14.1194C74.343 14.1194 73.2791 14.5784 72.4864 15.4962C71.7146 16.4141 71.3287 17.7387 71.3287 19.4701C71.3287 21.1807 71.7146 22.4949 72.4864 23.4128C73.2791 24.3098 74.3952 24.7583 75.8345 24.7583C76.6689 24.7583 77.3991 24.6018 78.0249 24.2889C78.6507 23.976 79.1096 23.4962 79.4017 22.8495H83.1253C82.6037 24.3515 81.7172 25.5405 80.4655 26.4167C79.2348 27.2928 77.6807 27.7309 75.8032 27.7309ZM97.1176 27.418V23.8195L97.4305 23.8821C97.1593 25.0503 96.5022 25.989 95.4592 26.6983C94.4161 27.3867 93.1749 27.7309 91.7356 27.7309C90.2753 27.7309 89.0029 27.3971 87.9181 26.7296C86.8542 26.0412 86.0302 25.0816 85.4461 23.8508C84.8621 22.6201 84.57 21.1703 84.57 19.5014C84.57 17.8117 84.8725 16.3411 85.4774 15.0894C86.0824 13.8378 86.9272 12.8678 88.012 12.1794C89.1176 11.491 90.4005 11.1468 91.8607 11.1468C93.3627 11.1468 94.6039 11.5119 95.5843 12.242C96.5648 12.9512 97.1697 13.9421 97.3992 15.2146L96.9924 15.2459V4.88867H100.966V27.418H97.1176ZM92.8933 24.5079C94.1658 24.5079 95.1776 24.0699 95.9285 23.1937C96.7004 22.2967 97.0863 21.0451 97.0863 19.4388C97.0863 17.8326 96.7004 16.5914 95.9285 15.7153C95.1567 14.8391 94.1345 14.401 92.862 14.401C91.6104 14.401 90.5987 14.8495 89.8268 15.7465C89.055 16.6227 88.6691 17.8639 88.6691 19.4701C88.6691 21.0764 89.055 22.3176 89.8268 23.1937C90.5987 24.0699 91.6208 24.5079 92.8933 24.5079ZM104.223 27.418V11.4597H108.166V27.418H104.223ZM104.036 8.8313V4.48189H108.323V8.8313H104.036ZM118.267 27.7309C116.661 27.7309 115.242 27.3762 114.012 26.667C112.802 25.9577 111.842 24.9773 111.133 23.7257C110.444 22.4532 110.1 21.0138 110.1 19.4076C110.1 17.8013 110.444 16.3828 111.133 15.152C111.842 13.9004 112.802 12.9199 114.012 12.2107C115.242 11.5014 116.661 11.1468 118.267 11.1468C119.581 11.1468 120.77 11.3971 121.834 11.8978C122.898 12.3776 123.774 13.066 124.463 13.963C125.151 14.8391 125.589 15.8613 125.777 17.0295H121.991C121.761 16.1742 121.323 15.5066 120.677 15.0269C120.03 14.5471 119.248 14.3072 118.33 14.3072C117.474 14.3072 116.734 14.5158 116.108 14.933C115.503 15.3502 115.034 15.9447 114.7 16.7166C114.366 17.4884 114.199 18.3854 114.199 19.4076C114.199 20.4506 114.366 21.358 114.7 22.1298C115.034 22.9017 115.514 23.5066 116.139 23.9447C116.765 24.3619 117.495 24.5705 118.33 24.5705C119.248 24.5705 120.03 24.3306 120.677 23.8508C121.323 23.371 121.761 22.7035 121.991 21.8482H125.777C125.589 23.0164 125.141 24.049 124.431 24.946C123.743 25.8221 122.867 26.5105 121.803 27.0112C120.76 27.491 119.581 27.7309 118.267 27.7309Z" fill="#37404C"/>
</svg>
