<svg width="13" height="13" viewBox="0 0 13 13" fill="none" xmlns="http://www.w3.org/2000/svg">
<path d="M12.2483 4.64036C12.2152 4.53994 12.131 4.46741 12.0308 4.45346L8.1697 3.91785L6.36979 0.141851C6.28022 -0.0472837 5.98219 -0.0472837 5.89262 0.141851L4.09272 3.91785L0.23166 4.45346C0.131429 4.46741 0.0466581 4.53994 0.0141361 4.64036C-0.0183859 4.74079 0.00613889 4.85181 0.0781138 4.92713L2.90966 7.89025L2.1382 11.9279C2.11847 12.0328 2.15686 12.1394 2.23789 12.2046C2.31893 12.2694 2.42876 12.28 2.51886 12.2325L6.13147 10.3423L9.74408 12.2325C9.78193 12.2521 9.82245 12.2621 9.8635 12.2621C9.92055 12.2621 9.97813 12.2426 10.0256 12.2046C10.1061 12.1399 10.145 12.0328 10.1253 11.9279L9.35382 7.89025L12.1854 4.92713C12.2557 4.85237 12.2803 4.74134 12.2483 4.64036Z" fill="#DEAE37"/>
</svg>
